<svg width="160" height="35" viewBox="0 0 160 35" fill="none" xmlns="http://www.w3.org/2000/svg">
<path fill-rule="evenodd" clip-rule="evenodd" d="M6.44035 9.23609C9.10954 5.73387 13.3838 3.46493 18.2013 3.46493C23.0472 3.46493 27.3432 5.76065 30.0092 9.29799C29.8957 9.41181 29.7924 9.52978 29.6988 9.64759C29.2105 10.2645 28.843 11.059 28.5487 11.8659C27.9559 13.4887 27.5038 15.6085 27.0852 17.5935L27.0479 17.7719C26.6302 19.7533 26.242 21.5959 25.7726 22.9638C25.5617 23.5783 25.3617 24.0128 25.1843 24.291C24.9993 24.0105 24.7893 23.5708 24.5671 22.9475C24.065 21.5403 23.6427 19.6263 23.1951 17.5827L23.1806 17.5157V17.5157C22.7504 15.5527 22.2941 13.4699 21.7252 11.8756C21.4394 11.0747 21.0887 10.2881 20.63 9.67694C20.1798 9.07718 19.4305 8.40029 18.3345 8.40029C17.2454 8.40029 16.4926 9.06983 16.0359 9.66287C15.5684 10.2701 15.2039 11.0534 14.9036 11.8547C14.2989 13.4682 13.8045 15.5789 13.3443 17.5666L13.2968 17.7719C12.8412 19.7409 12.4153 21.5818 11.9318 22.9523C11.7472 23.4757 11.5731 23.8739 11.4154 24.1583C11.2613 23.8752 11.0915 23.4797 10.912 22.9607C10.4482 21.6194 10.0418 19.8301 9.60542 17.9083L9.52902 17.5719C9.07687 15.583 8.58631 13.4685 7.97297 11.85C7.66825 11.0457 7.29551 10.2584 6.81319 9.64838C6.70396 9.5103 6.57985 9.37013 6.44035 9.23609ZM4.82488 11.9253C4.95201 12.1701 5.0865 12.4736 5.22554 12.8406C5.75644 14.2416 6.20619 16.1533 6.66934 18.1905L6.75949 18.5875C7.18117 20.4464 7.61982 22.38 8.13651 23.8739C8.41132 24.6684 8.7432 25.4466 9.16999 26.0514C9.57361 26.6235 10.2977 27.3623 11.4111 27.3623C12.5213 27.3623 13.2471 26.627 13.6535 26.0576C14.0839 25.4542 14.4212 24.6769 14.7016 23.8818C15.239 22.3584 15.6967 20.3794 16.1346 18.4855V18.4854L16.2016 18.1959C16.6734 16.1574 17.1277 14.2419 17.6547 12.8358C17.8988 12.1843 18.1274 11.7305 18.3264 11.449C18.515 11.7281 18.7304 12.1747 18.9589 12.815C19.4611 14.2222 19.883 16.1361 20.3307 18.1798L20.3454 18.2467C20.7754 20.2098 21.2317 22.2926 21.8006 23.8867C22.0865 24.6879 22.4372 25.4745 22.8959 26.0855C23.3461 26.6854 24.0954 27.3623 25.1911 27.3623C26.2928 27.3623 27.0393 26.6792 27.4842 26.074C27.936 25.4599 28.2757 24.6707 28.5501 23.8708C29.0775 22.3344 29.4968 20.3408 29.8967 18.4444V18.4443L29.954 18.169C30.3846 16.1278 30.7978 14.2214 31.3081 12.8246C31.4186 12.5208 31.5275 12.2617 31.6313 12.0441C32.4132 13.7921 32.8468 15.7223 32.8468 17.7513C32.8468 25.6413 26.2901 32.0377 18.2013 32.0377C10.1128 32.0377 3.55571 25.6413 3.55571 17.7513C3.55571 15.6762 4.00925 13.7044 4.82488 11.9253ZM18.2013 0.607666C8.49508 0.607666 0.626587 8.28312 0.626587 17.7513C0.626587 27.2194 8.49508 34.8948 18.2013 34.8948C27.9078 34.8948 35.7759 27.2194 35.7759 17.7513C35.7759 8.28312 27.9078 0.607666 18.2013 0.607666ZM18.5362 11.2098C18.5362 11.2101 18.5328 11.2128 18.5259 11.2167C18.5327 11.2114 18.5362 11.2095 18.5362 11.2098ZM18.1313 11.2117C18.1245 11.2077 18.1212 11.2049 18.1212 11.2045C18.1212 11.2042 18.1246 11.2062 18.1313 11.2117ZM24.9684 24.5623C24.9684 24.5623 24.9716 24.5592 24.978 24.5552C24.9716 24.5605 24.9684 24.5627 24.9684 24.5623ZM25.3943 24.5508C25.4011 24.5548 25.4047 24.5574 25.4047 24.5579C25.4047 24.5583 25.4011 24.5561 25.3943 24.5508ZM11.1109 24.5879C11.1109 24.5875 11.1151 24.5835 11.1236 24.5778C11.1152 24.5853 11.1109 24.5884 11.1109 24.5879ZM11.7041 24.5804C11.7125 24.5862 11.7167 24.5901 11.7167 24.5906C11.7167 24.591 11.7124 24.5884 11.7041 24.5804Z" fill="#81818B"/>
<path d="M45.4803 27.9007L41.2185 13.6801H44.9515L47.4792 23.9154L50.418 13.6801H54.5918L57.5312 23.9154L60.088 13.6801H63.821L59.5296 27.9007H55.6207L52.5049 17.2639L49.3897 27.9007H45.4803Z" fill="#81818B"/>
<path d="M69.2983 28.2449C68.0445 28.2449 67.0156 28.0533 66.2122 27.6711C65.4094 27.2698 64.8116 26.7442 64.4194 26.0943C64.0276 25.4444 63.8318 24.7277 63.8318 23.9442C63.8318 22.6254 64.3605 21.5549 65.4186 20.733C66.4766 19.9112 68.0644 19.5002 70.1804 19.5002H73.8838V19.1562C73.8838 18.1813 73.5995 17.4646 73.0313 17.0059C72.4632 16.5471 71.7575 16.3178 70.9153 16.3178C70.1508 16.3178 69.4845 16.4993 68.9163 16.8625C68.3482 17.2066 67.9954 17.7226 67.8583 18.4107H64.1841C64.2823 17.3786 64.6352 16.4802 65.2422 15.7157C65.8696 14.9512 66.673 14.3682 67.6522 13.9668C68.6325 13.5463 69.7294 13.3361 70.9444 13.3361C73.0216 13.3361 74.6575 13.8425 75.8531 14.8556C77.0481 15.8686 77.6459 17.3022 77.6459 19.1562V27.9007H74.4417L74.0894 25.6072C73.6583 26.3717 73.0508 27.0022 72.2673 27.4995C71.5028 27.9963 70.5133 28.2449 69.2983 28.2449ZM70.1508 25.3776C71.2288 25.3776 72.0613 25.0334 72.6488 24.3455C73.2563 23.6575 73.6388 22.8067 73.7958 21.7938H70.5916C69.5924 21.7938 68.8775 21.9754 68.4459 22.3386C68.0153 22.6824 67.7995 23.1129 67.7995 23.6287C67.7995 24.1831 68.0153 24.6131 68.4459 24.9188C68.8775 25.2245 69.4451 25.3776 70.1508 25.3776Z" fill="#81818B"/>
<path d="M83.568 27.9007L78.2191 13.6801H82.1572L85.8605 24.4317L89.5639 13.6801H93.5024L88.1238 27.9007H83.568Z" fill="#81818B"/>
<path d="M101.065 28.2449C99.5959 28.2449 98.2929 27.9388 97.1561 27.3273C96.0198 26.7155 95.1285 25.8554 94.4816 24.7467C93.8348 23.6385 93.5121 22.3577 93.5121 20.905C93.5121 19.4333 93.8256 18.124 94.452 16.9772C95.0989 15.8304 95.9805 14.9416 97.0978 14.3108C98.2336 13.661 99.5662 13.3361 101.095 13.3361C102.525 13.3361 103.789 13.6419 104.886 14.2535C105.983 14.8651 106.836 15.7061 107.443 16.7765C108.07 17.8277 108.384 19.0032 108.384 20.303C108.384 20.5132 108.374 20.733 108.355 20.9624C108.355 21.1918 108.344 21.4307 108.325 21.6792H97.2446C97.3228 22.7877 97.715 23.6575 98.4202 24.2884C99.1448 24.9188 100.017 25.2343 101.036 25.2343C101.8 25.2343 102.437 25.0719 102.946 24.7467C103.475 24.403 103.867 23.9632 104.122 23.4279H107.943C107.669 24.3264 107.208 25.1485 106.562 25.8939C105.934 26.6199 105.151 27.1933 104.21 27.614C103.289 28.0343 102.241 28.2449 101.065 28.2449ZM101.095 16.3178C100.174 16.3178 99.3606 16.5758 98.6549 17.0919C97.9498 17.5888 97.4992 18.3534 97.3029 19.3855H104.563C104.504 18.4489 104.152 17.7035 103.505 17.1492C102.858 16.5949 102.055 16.3178 101.095 16.3178Z" fill="#81818B"/>
<path d="M110.373 27.9007V7.25781H114.135V27.9007H110.373Z" fill="#81818B"/>
<path d="M123.886 28.2449C122.417 28.2449 121.114 27.9388 119.977 27.3273C118.841 26.7155 117.949 25.8554 117.303 24.7467C116.656 23.6385 116.333 22.3577 116.333 20.905C116.333 19.4333 116.646 18.124 117.273 16.9772C117.92 15.8304 118.801 14.9416 119.919 14.3108C121.055 13.661 122.387 13.3361 123.916 13.3361C125.346 13.3361 126.61 13.6419 127.707 14.2535C128.804 14.8651 129.657 15.7061 130.264 16.7765C130.891 17.8277 131.205 19.0032 131.205 20.303C131.205 20.5132 131.195 20.733 131.176 20.9624C131.176 21.1918 131.165 21.4307 131.146 21.6792H120.065C120.144 22.7877 120.536 23.6575 121.241 24.2884C121.966 24.9188 122.838 25.2343 123.857 25.2343C124.621 25.2343 125.258 25.0719 125.767 24.7467C126.297 24.403 126.688 23.9632 126.943 23.4279H130.764C130.49 24.3264 130.029 25.1485 129.383 25.8939C128.755 26.6199 127.972 27.1933 127.031 27.614C126.11 28.0343 125.062 28.2449 123.886 28.2449ZM123.916 16.3178C122.995 16.3178 122.182 16.5758 121.476 17.0919C120.771 17.5888 120.32 18.3534 120.124 19.3855H127.384C127.325 18.4489 126.973 17.7035 126.326 17.1492C125.679 16.5949 124.876 16.3178 123.916 16.3178Z" fill="#81818B"/>
<path d="M139.219 28.2449C137.926 28.2449 136.789 28.044 135.81 27.6428C134.829 27.222 134.045 26.6487 133.458 25.9222C132.87 25.1962 132.517 24.3552 132.4 23.3996H136.191C136.309 23.9535 136.623 24.4317 137.132 24.833C137.661 25.2152 138.337 25.4064 139.16 25.4064C139.983 25.4064 140.581 25.244 140.952 24.9188C141.345 24.5941 141.541 24.2212 141.541 23.8008C141.541 23.189 141.266 22.778 140.718 22.5678C140.169 22.3386 139.405 22.1188 138.425 21.9085C137.798 21.7747 137.162 21.6123 136.515 21.4211C135.868 21.23 135.271 20.991 134.722 20.7044C134.193 20.3985 133.762 20.0163 133.428 19.5575C133.095 19.0797 132.929 18.4967 132.929 17.8086C132.929 16.5471 133.438 15.4864 134.458 14.6262C135.496 13.7661 136.945 13.3361 138.807 13.3361C140.532 13.3361 141.903 13.7279 142.922 14.5115C143.96 15.2952 144.578 16.3751 144.774 17.7513H141.217C141.002 16.7001 140.188 16.1744 138.778 16.1744C138.072 16.1744 137.524 16.3082 137.132 16.5758C136.76 16.8434 136.574 17.1779 136.574 17.5793C136.574 17.9998 136.857 18.3343 137.426 18.5828C137.994 18.8312 138.748 19.0606 139.689 19.2709C140.708 19.5002 141.638 19.7582 142.481 20.0449C143.343 20.3125 144.029 20.7235 144.539 21.2778C145.048 21.8129 145.303 22.5869 145.303 23.6C145.323 24.4795 145.087 25.2723 144.597 25.9797C144.108 26.6867 143.402 27.2411 142.481 27.6428C141.56 28.044 140.473 28.2449 139.219 28.2449Z" fill="#81818B"/>
<path d="M153.915 27.9088C152.622 27.9088 151.485 27.708 150.506 27.3067C149.525 26.886 148.742 26.3126 148.154 25.5861C147.566 24.8602 147.214 24.0191 147.096 23.0635H150.887C151.005 23.6174 151.319 24.0957 151.828 24.4969C152.357 24.8792 153.033 25.0703 153.856 25.0703C154.679 25.0703 155.277 24.9079 155.649 24.5828C156.041 24.258 156.237 23.8851 156.237 23.4648C156.237 22.8529 155.963 22.4419 155.414 22.2318C154.865 22.0025 154.101 21.7827 153.121 21.5725C152.494 21.4386 151.858 21.2762 151.211 21.0851C150.564 20.894 149.967 20.655 149.418 20.3683C148.889 20.0625 148.458 19.6802 148.124 19.2215C147.791 18.7436 147.625 18.1606 147.625 17.4726C147.625 16.2111 148.135 15.1503 149.154 14.2902C150.192 13.43 151.642 13 153.503 13C155.228 13 156.599 13.3918 157.618 14.1755C158.656 14.9591 159.274 16.0391 159.47 17.4153H155.914C155.698 16.364 154.885 15.8384 153.474 15.8384C152.769 15.8384 152.22 15.9722 151.828 16.2398C151.456 16.5074 151.27 16.8418 151.27 17.2432C151.27 17.6637 151.554 17.9982 152.122 18.2467C152.69 18.4952 153.445 18.7245 154.385 18.9348C155.404 19.1641 156.334 19.4222 157.177 19.7089C158.039 19.9765 158.725 20.3874 159.235 20.9417C159.744 21.4769 159.999 22.2508 159.999 23.2639C160.019 24.1434 159.783 24.9362 159.294 25.6437C158.804 26.3506 158.099 26.905 157.177 27.3067C156.257 27.708 155.169 27.9088 153.915 27.9088Z" fill="#81818B"/>
</svg>
